# Blender v2.77 (sub 0) OBJ File: 'MushroomTutorial.blend'
# www.blender.org
mtllib MushroomTutorial.mtl
o Mushroom_Cylinder
v 0.419353 0.577190 0.000000
v 0.000000 0.000000 4.475018
v 0.000000 0.941536 1.845451
v 0.000000 0.911342 4.475018
v 0.553421 0.761719 1.845451
v 0.535673 0.737291 4.475018
v 0.895454 0.290951 1.845451
v 0.866738 0.281620 4.475018
v 0.895454 -0.290951 1.845451
v 0.866738 -0.281620 4.475018
v 0.553421 -0.761719 1.845451
v 0.535673 -0.737291 4.475018
v -0.000000 -0.941536 1.845451
v -0.000000 -0.911342 4.475018
v -0.553421 -0.761719 1.845451
v -0.535674 -0.737291 4.475018
v -0.895454 -0.290951 1.845451
v -0.866738 -0.281620 4.475018
v -0.895454 0.290951 1.845451
v -0.866738 0.281620 4.475018
v -0.553421 0.761719 1.845451
v -0.535673 0.737292 4.475018
v 0.000000 1.239194 4.174662
v 0.728380 1.002529 4.174662
v 1.178544 0.382932 4.174662
v 1.178544 -0.382932 4.174662
v 0.728380 -1.002529 4.174662
v -0.000000 -1.239194 4.174662
v -0.728380 -1.002529 4.174662
v -1.178544 -0.382932 4.174662
v -1.178544 0.382932 4.174662
v -0.728380 1.002530 4.174662
v 1.035765 1.425608 1.972065
v 1.675903 0.544534 1.972065
v 1.675902 -0.544534 1.972065
v 1.035765 -1.425608 1.972065
v -0.000000 -1.762148 1.972065
v -1.035765 -1.425608 1.972065
v -1.675902 -0.544534 1.972065
v -1.675902 0.544534 1.972065
v -1.035764 1.425608 1.972065
v -0.000000 1.762148 1.972065
v -0.000000 1.762148 2.906874
v 1.035765 1.425608 2.906874
v 1.675903 0.544534 2.906874
v 1.675902 -0.544534 2.906874
v 1.035765 -1.425608 2.906874
v -0.000000 -1.762148 2.906874
v -1.035765 -1.425608 2.906874
v -1.675902 -0.544534 2.906874
v -1.675902 0.544534 2.906874
v -1.035764 1.425608 2.906874
v 0.443505 -0.144981 3.048476
v 0.553421 0.761719 0.295817
v 0.000000 0.941536 0.295817
v 0.895454 0.290951 0.295817
v 0.895454 -0.290951 0.295817
v 0.553421 -0.761719 0.295817
v -0.000000 -0.941536 0.295817
v -0.553421 -0.761719 0.295817
v -0.895454 -0.290951 0.295817
v -0.895454 0.290951 0.295817
v -0.553421 0.761719 0.295817
v 0.000000 0.000000 0.000000
v 0.000000 0.713446 0.000000
v 0.678528 0.220467 0.000000
v 0.678528 -0.220467 0.000000
v 0.419353 -0.577190 0.000000
v -0.000000 -0.713446 0.000000
v -0.419353 -0.577190 0.000000
v -0.678528 -0.220467 0.000000
v -0.678528 0.220467 0.000000
v -0.419353 0.577191 0.000000
vt 0.1930 0.9185
vt 0.2430 0.5784
vt 0.2419 0.9239
vt 0.7568 0.2453
vt 0.7835 0.2215
vt 0.7923 0.2418
vt 0.7981 0.2096
vt 0.8111 0.2407
vt 0.2839 0.5748
vt 0.2917 0.9203
vt 0.7644 0.2104
vt 0.7692 0.1922
vt 0.1136 0.8914
vt 0.1622 0.5605
vt 0.1505 0.9061
vt 0.7424 0.2126
vt 0.7356 0.1950
vt 0.0472 0.8766
vt 0.0848 0.5346
vt 0.0797 0.8802
vt 0.7259 0.2272
vt 0.7100 0.2171
vt 0.3736 0.8944
vt 0.4017 0.5365
vt 0.4079 0.8820
vt 0.7212 0.2488
vt 0.7024 0.2499
vt 0.2022 0.5729
vt 0.7300 0.2691
vt 0.7154 0.2810
vt 0.3241 0.5635
vt 0.3357 0.9091
vt 0.7491 0.2802
vt 0.7443 0.2985
vt 0.1232 0.5459
vt 0.7711 0.2781
vt 0.7779 0.2956
vt 0.4400 0.5310
vt 0.4406 0.8766
vt 0.7876 0.2634
vt 0.8035 0.2736
vt 0.3632 0.5489
vt 0.8908 0.2423
vt 0.8669 0.3216
vt 0.8010 0.3718
vt 0.7182 0.3737
vt 0.6501 0.3265
vt 0.6227 0.2483
vt 0.6466 0.1690
vt 0.7125 0.1188
vt 0.7953 0.1169
vt 0.8634 0.1641
vt 0.2874 0.9660
vt 0.2425 0.9728
vt 0.1565 0.9394
vt 0.1183 0.9120
vt 0.0822 0.8909
vt 0.4049 0.8944
vt 0.3685 0.9176
vt 0.9487 0.1053
vt 0.9943 0.2449
vt 0.8297 0.0192
vt 0.6829 0.0195
vt 0.5643 0.1060
vt 0.5192 0.2458
vt 0.5648 0.3853
vt 0.6838 0.4714
vt 0.8306 0.4711
vt 0.9492 0.3846
vt 0.0466 0.5310
vt 0.0860 0.4735
vt 0.1253 0.4820
vt 0.1644 0.4931
vt 0.3611 0.4843
vt 0.2431 0.5067
vt 0.4398 0.4708
vt 0.2036 0.5025
vt 0.4003 0.4749
vt 0.2827 0.5039
vt 0.3220 0.4954
vt 0.4379 0.2920
vt 0.0445 0.2920
vt 0.0464 0.4708
vt 0.1980 0.9626
vt 0.0469 0.8842
vt 0.4403 0.8842
vt 0.3296 0.9450
vn 0.8090 0.5878 0.0000
vn 0.0000 0.0000 1.0000
vn 0.2144 0.6598 0.7202
vn 0.3090 0.9511 0.0000
vn 0.5613 0.4078 0.7202
vn 0.8090 -0.5878 0.0000
vn 0.6938 -0.0000 0.7202
vn -0.3090 -0.9511 0.0000
vn 0.5613 -0.4078 0.7202
vn -1.0000 0.0000 0.0000
vn 0.2144 -0.6598 0.7202
vn 1.0000 0.0000 0.0000
vn -0.2144 -0.6598 0.7202
vn -0.3090 0.9511 0.0000
vn -0.5613 -0.4078 0.7202
vn 0.3090 -0.9511 0.0000
vn -0.6938 0.0000 0.7202
vn -0.8090 -0.5878 0.0000
vn -0.5613 0.4078 0.7202
vn -0.8090 0.5878 0.0000
vn -0.2144 0.6598 0.7202
vn -0.2877 0.8854 0.3652
vn -0.7531 0.5472 0.3652
vn -0.9309 0.0000 0.3652
vn -0.7531 -0.5472 0.3652
vn -0.2877 -0.8854 0.3652
vn 0.2877 -0.8854 0.3652
vn 0.7531 -0.5472 0.3652
vn 0.9309 -0.0000 0.3652
vn 0.7531 0.5472 0.3652
vn 0.2877 0.8854 0.3652
vn 0.0495 0.1523 -0.9871
vn 0.1296 0.0941 -0.9871
vn 0.1601 0.0000 -0.9871
vn 0.1296 -0.0941 -0.9871
vn 0.0495 -0.1523 -0.9871
vn -0.0495 -0.1523 -0.9871
vn -0.1296 -0.0941 -0.9871
vn -0.1601 0.0000 -0.9871
vn -0.1296 0.0941 -0.9871
vn -0.0495 0.1523 -0.9871
vn -0.2492 -0.7669 -0.5914
vn 0.6524 -0.4740 -0.5914
vn -0.6524 0.4740 -0.5914
vn 0.6524 0.4740 -0.5914
vn -0.6524 -0.4740 -0.5914
vn 0.2492 -0.7669 -0.5914
vn 0.8064 0.0000 -0.5914
vn -0.8064 0.0000 -0.5914
vn 0.2492 0.7669 -0.5914
vn -0.2492 0.7669 -0.5914
vn 0.0000 0.0000 -1.0000
usemtl Mushroom
s off
f 7/1/1 54/2/1 5/3/1
f 2/4/2 6/5/2 4/6/2
f 4/6/3 24/7/3 23/8/3
f 5/3/4 55/9/4 3/10/4
f 2/4/2 8/11/2 6/5/2
f 6/5/5 25/12/5 24/7/5
f 11/13/6 57/14/6 9/15/6
f 2/4/2 10/16/2 8/11/2
f 8/11/7 26/17/7 25/12/7
f 15/18/8 59/19/8 13/20/8
f 2/4/2 12/21/2 10/16/2
f 10/16/9 27/22/9 26/17/9
f 19/23/10 61/24/10 17/25/10
f 2/4/2 14/26/2 12/21/2
f 27/22/11 14/26/11 28/27/11
f 9/15/12 56/28/12 7/1/12
f 2/4/2 16/29/2 14/26/2
f 14/26/13 29/30/13 28/27/13
f 3/10/14 63/31/14 21/32/14
f 2/4/2 18/33/2 16/29/2
f 16/29/15 30/34/15 29/30/15
f 13/20/16 58/35/16 11/13/16
f 2/4/2 20/36/2 18/33/2
f 18/33/17 31/37/17 30/34/17
f 17/25/18 60/38/18 15/39/18
f 2/4/2 22/40/2 20/36/2
f 20/36/19 32/41/19 31/37/19
f 21/32/20 62/42/20 19/23/20
f 2/4/2 4/6/2 22/40/2
f 22/40/21 23/8/21 32/41/21
f 32/41/22 43/43/22 52/44/22
f 51/45/23 32/41/23 52/44/23
f 30/34/24 51/45/24 50/46/24
f 29/30/25 50/46/25 49/47/25
f 48/48/26 29/30/26 49/47/26
f 27/22/27 48/48/27 47/49/27
f 26/17/28 47/49/28 46/50/28
f 25/12/29 46/50/29 45/51/29
f 24/7/30 45/51/30 44/52/30
f 43/43/31 24/7/31 44/52/31
f 42/53/32 5/3/32 3/10/32
f 33/54/33 7/1/33 5/3/33
f 7/1/34 35/55/34 9/15/34
f 35/55/35 11/13/35 9/15/35
f 36/56/36 13/20/36 11/13/36
f 37/57/37 15/18/37 13/20/37
f 15/39/38 39/58/38 17/25/38
f 17/25/39 40/59/39 19/23/39
f 40/59/40 21/32/40 19/23/40
f 21/32/41 42/53/41 3/10/41
f 43/43/4 33/60/4 42/61/4
f 44/52/1 34/62/1 33/60/1
f 45/51/12 35/63/12 34/62/12
f 46/50/6 36/64/6 35/63/6
f 47/49/16 37/65/16 36/64/16
f 48/48/8 38/66/8 37/65/8
f 49/47/18 39/67/18 38/66/18
f 50/46/10 40/68/10 39/67/10
f 51/45/20 41/69/20 40/68/20
f 52/44/14 42/61/14 41/69/14
f 60/70/42 69/71/42 59/19/42
f 57/14/43 68/72/43 67/73/43
f 63/31/44 72/74/44 62/42/44
f 56/28/45 1/75/45 54/2/45
f 61/24/46 70/76/46 60/38/46
f 59/19/47 68/72/47 58/35/47
f 57/14/48 66/77/48 56/28/48
f 62/42/49 71/78/49 61/24/49
f 55/9/50 1/75/50 65/79/50
f 55/9/51 73/80/51 63/31/51
f 64/81/52 65/79/52 1/75/52
f 64/81/52 1/75/52 66/77/52
f 64/82/52 66/77/52 67/73/52
f 64/82/52 67/73/52 68/72/52
f 64/82/52 68/72/52 69/71/52
f 64/82/52 69/71/52 70/83/52
f 64/81/52 70/76/52 71/78/52
f 64/81/52 71/78/52 72/74/52
f 64/81/52 72/74/52 73/80/52
f 64/81/52 73/80/52 65/79/52
f 7/1/1 56/28/1 54/2/1
f 4/6/3 6/5/3 24/7/3
f 5/3/4 54/2/4 55/9/4
f 6/5/5 8/11/5 25/12/5
f 11/13/6 58/35/6 57/14/6
f 8/11/7 10/16/7 26/17/7
f 15/18/8 60/70/8 59/19/8
f 10/16/9 12/21/9 27/22/9
f 19/23/10 62/42/10 61/24/10
f 27/22/11 12/21/11 14/26/11
f 9/15/12 57/14/12 56/28/12
f 14/26/13 16/29/13 29/30/13
f 3/10/14 55/9/14 63/31/14
f 16/29/15 18/33/15 30/34/15
f 13/20/16 59/19/16 58/35/16
f 18/33/17 20/36/17 31/37/17
f 17/25/18 61/24/18 60/38/18
f 20/36/19 22/40/19 32/41/19
f 21/32/20 63/31/20 62/42/20
f 22/40/21 4/6/21 23/8/21
f 32/41/22 23/8/22 43/43/22
f 51/45/23 31/37/23 32/41/23
f 30/34/24 31/37/24 51/45/24
f 29/30/25 30/34/25 50/46/25
f 48/48/26 28/27/26 29/30/26
f 27/22/27 28/27/27 48/48/27
f 26/17/28 27/22/28 47/49/28
f 25/12/29 26/17/29 46/50/29
f 24/7/30 25/12/30 45/51/30
f 43/43/31 23/8/31 24/7/31
f 42/53/32 33/54/32 5/3/32
f 33/54/33 34/84/33 7/1/33
f 7/1/34 34/84/34 35/55/34
f 35/55/35 36/56/35 11/13/35
f 36/56/36 37/57/36 13/20/36
f 37/57/37 38/85/37 15/18/37
f 15/39/38 38/86/38 39/58/38
f 17/25/39 39/58/39 40/59/39
f 40/59/40 41/87/40 21/32/40
f 21/32/41 41/87/41 42/53/41
f 43/43/4 44/52/4 33/60/4
f 44/52/1 45/51/1 34/62/1
f 45/51/12 46/50/12 35/63/12
f 46/50/6 47/49/6 36/64/6
f 47/49/16 48/48/16 37/65/16
f 48/48/8 49/47/8 38/66/8
f 49/47/18 50/46/18 39/67/18
f 50/46/10 51/45/10 40/68/10
f 51/45/20 52/44/20 41/69/20
f 52/44/14 43/43/14 42/61/14
f 60/70/42 70/83/42 69/71/42
f 57/14/43 58/35/43 68/72/43
f 63/31/44 73/80/44 72/74/44
f 56/28/45 66/77/45 1/75/45
f 61/24/46 71/78/46 70/76/46
f 59/19/47 69/71/47 68/72/47
f 57/14/48 67/73/48 66/77/48
f 62/42/49 72/74/49 71/78/49
f 55/9/50 54/2/50 1/75/50
f 55/9/51 65/79/51 73/80/51
